<?xml version="1.0" standalone="no"?>
<!DOCTYPE svg PUBLIC "-//W3C//DTD SVG 20010904//EN"
 "http://www.w3.org/TR/2001/REC-SVG-20010904/DTD/svg10.dtd">
<svg version="1.0" xmlns="http://www.w3.org/2000/svg"
 width="1200.000000pt" height="1200.000000pt" viewBox="0 0 1200.000000 1200.000000"
 preserveAspectRatio="xMidYMid meet">
<metadata>
Created by potrace 1.11, written by Peter Selinger 2001-2013
</metadata>
<g transform="translate(0.000000,1200.000000) scale(0.100000,-0.100000)"
fill="#000000" stroke="none">
<path d="M0 6000 l0 -6000 6000 0 6000 0 0 6000 0 6000 -6000 0 -6000 0 0
-6000z m3692 611 l33 -29 18 24 c34 45 128 40 162 -10 8 -11 15 -38 15 -59 0
-87 -108 -131 -170 -69 l-28 29 -27 -29 c-64 -67 -186 -18 -185 74 2 88 113
130 182 69z m5320 0 l33 -29 18 24 c34 45 128 40 162 -10 8 -11 15 -38 15 -59
0 -87 -108 -131 -170 -69 l-28 29 -27 -29 c-64 -67 -186 -18 -185 74 2 88 113
130 182 69z m-2872 -65 c108 -1 118 -3 169 -31 53 -29 131 -113 131 -140 0 -7
-24 -29 -53 -49 -52 -36 -68 -43 -66 -28 3 20 -4 34 -32 67 -32 36 -56 47 -45
20 3 -9 -15 -30 -53 -59 -57 -44 -71 -48 -71 -18 0 23 -40 72 -60 72 -27 0
-75 -67 -100 -140 -31 -88 -31 -246 -1 -340 21 -66 72 -140 96 -140 8 0 26 15
40 34 l26 35 61 -45 61 -44 47 42 c27 25 52 58 59 80 7 22 31 55 62 82 65 58
148 85 282 93 l98 6 -6 26 c-7 29 -36 73 -52 78 -6 2 -24 -7 -40 -21 l-30 -25
-32 33 c-29 30 -36 33 -64 25 -17 -5 -48 -20 -69 -34 l-39 -26 -44 48 c-24 26
-44 51 -45 54 0 13 100 71 147 86 56 18 365 19 440 2 81 -18 137 -60 173 -128
l17 -35 21 46 c22 51 68 90 133 114 35 13 80 16 218 15 196 -2 243 -9 319 -52
l52 -29 0 35 0 35 75 0 75 0 0 83 0 84 96 12 c53 6 99 9 102 6 3 -2 0 -10 -6
-18 -6 -7 -14 -47 -18 -90 -6 -67 -5 -77 10 -77 13 0 16 11 17 58 1 64 4 91
14 100 10 11 175 29 175 19 0 -4 -4 -16 -9 -25 -5 -9 -11 -47 -13 -84 l-4 -68
113 0 113 0 0 -64 0 -64 -109 -4 c-60 -1 -112 -5 -115 -8 -2 -3 -8 -66 -12
-141 -8 -165 12 -277 41 -229 10 16 25 11 25 -8 0 -10 6 -27 14 -37 13 -18 18
-19 62 -7 26 7 59 22 74 32 16 11 32 20 37 20 5 0 15 -21 23 -47 12 -43 14
-45 18 -20 l3 27 85 0 84 0 0 205 0 205 -80 0 -80 0 0 70 0 70 265 0 265 0 0
-280 0 -280 80 0 80 0 0 -65 0 -65 -350 0 -350 0 0 30 c0 17 -2 30 -4 30 -2 0
-35 -14 -72 -32 -68 -32 -70 -32 -248 -35 -166 -3 -183 -2 -223 18 -95 46
-129 157 -118 391 l6 146 -76 4 -76 3 -25 -37 c-29 -45 -37 -47 -52 -12 -7 15
-31 33 -58 45 -51 23 -48 25 -95 -48 -11 -18 -24 -33 -27 -33 -4 0 -15 14 -24
30 -9 17 -29 35 -44 42 -22 10 -28 10 -39 -6 -33 -45 12 -79 161 -122 182 -53
244 -106 244 -209 0 -82 -46 -146 -135 -187 -47 -22 -62 -23 -270 -23 -201 0
-224 2 -270 21 -27 12 -58 25 -67 29 -15 6 -18 2 -18 -19 0 -26 0 -26 -85 -26
l-85 0 0 41 c0 24 -4 38 -10 34 -5 -3 -10 -22 -10 -41 l0 -34 -62 -1 c-429
-11 -427 -11 -492 32 l-46 31 -25 -21 c-52 -40 -110 -50 -305 -53 -185 -3
-185 -3 -246 25 -151 70 -224 218 -224 451 0 176 37 289 122 382 69 75 187
119 288 106 24 -2 96 -5 160 -6z m-4954 -56 l23 -55 1 58 0 57 73 0 73 0 40
-95 c21 -52 42 -95 45 -95 3 0 23 43 45 95 l39 95 78 0 77 0 0 -57 1 -58 23
55 22 55 72 3 72 3 1 -38 c0 -21 0 -95 0 -165 0 -71 2 -128 5 -128 3 0 19 9
35 20 63 45 120 63 198 61 315 -6 292 -4 350 -36 61 -33 106 -89 133 -163 l17
-47 1 118 0 117 90 0 90 0 0 -52 c1 -49 2 -51 15 -34 8 11 15 34 15 51 l0 32
78 8 c42 4 88 7 102 7 271 -5 283 -6 333 -35 l47 -28 0 26 0 25 265 0 265 0 0
-280 0 -280 80 0 80 0 0 -65 0 -65 -350 0 -350 0 0 70 0 70 85 0 85 0 0 205 0
205 -79 0 c-75 0 -80 1 -83 23 -3 17 -10 9 -37 -42 l-33 -64 -14 29 c-17 35
-57 61 -99 66 -28 3 -40 -9 -80 -87 -3 -6 -7 -5 -11 2 -3 7 -14 23 -24 35 -16
20 -20 21 -35 8 -10 -8 -26 -33 -36 -55 -16 -35 -19 -69 -19 -252 l0 -213 -85
0 -85 0 0 238 c-1 191 -3 233 -13 217 -8 -14 -13 -89 -15 -237 l-3 -218 -90 0
-89 0 0 150 0 150 -236 0 -236 0 7 -27 c20 -82 77 -144 113 -124 10 5 24 17
32 25 11 14 17 12 51 -19 45 -40 67 -40 133 2 l39 25 41 -41 41 -41 -30 -26
c-17 -14 -55 -37 -85 -52 -52 -25 -64 -26 -234 -29 -200 -4 -246 4 -328 56
l-48 31 0 -40 0 -40 -70 0 -70 0 -1 333 -1 332 -23 -50 c-23 -49 -24 -57 -24
-332 l-1 -283 -75 0 -75 0 0 156 c0 141 -2 156 -18 161 -11 2 -28 30 -44 71
l-26 67 -22 -50 c-12 -27 -26 -60 -31 -72 -5 -13 -15 -23 -24 -23 -13 0 -15
-23 -15 -155 l0 -155 -70 0 -70 0 0 263 c0 257 -1 265 -25 323 l-24 59 -1
-322 0 -323 -75 0 -75 0 0 475 0 476 76 -3 76 -3 24 -55z m3254 -18 c0 -4 -4
-12 -9 -17 -6 -6 -13 -45 -17 -87 -6 -68 -5 -78 10 -78 13 0 16 11 17 58 1 64
4 91 14 100 10 11 175 29 175 19 0 -4 -4 -16 -9 -25 -5 -9 -11 -47 -13 -84
l-4 -68 113 0 113 0 0 -64 0 -64 -109 -4 c-60 -1 -112 -5 -115 -8 -2 -3 -8
-66 -12 -141 -8 -165 12 -277 41 -229 10 16 25 11 25 -8 0 -10 6 -27 14 -37
13 -18 18 -19 62 -7 26 7 59 22 74 32 16 11 32 20 37 20 9 0 33 -77 33 -106 0
-9 -27 -28 -67 -47 -67 -31 -70 -31 -247 -34 -166 -3 -183 -2 -223 18 -96 46
-129 157 -118 392 l6 147 -70 0 -71 0 0 70 0 70 75 0 75 0 0 84 0 84 78 9
c105 14 122 14 122 5z m5425 -182 c11 -4 29 -4 40 1 11 4 45 8 75 8 77 1 135
-30 178 -93 17 -26 32 -43 32 -37 0 23 72 89 120 110 50 22 62 23 260 21 63
-1 141 2 173 5 53 6 57 5 57 -13 0 -30 15 -35 51 -16 18 9 59 19 91 21 52 5
58 4 58 -13 0 -11 3 -35 6 -55 l6 -37 -66 -4 c-36 -2 -68 -7 -71 -10 -3 -3 -1
-27 6 -53 25 -99 -29 -208 -123 -252 -56 -26 -125 -36 -174 -25 -45 10 -78 1
-87 -22 -18 -47 27 -65 188 -72 66 -3 136 -10 155 -15 88 -22 130 -77 130
-171 0 -81 -38 -136 -125 -179 -66 -32 -71 -33 -253 -41 -200 -9 -283 -2 -357
31 -95 44 -133 120 -100 204 6 15 1 17 -44 17 l-51 0 0 228 c0 224 -7 289 -34
311 -11 9 -12 4 -5 -31 4 -24 8 -148 9 -275 l0 -233 -84 0 -84 0 -4 243 c-2
163 -7 249 -15 262 -11 19 -13 17 -32 -25 -19 -41 -21 -65 -21 -262 l0 -218
-80 0 -80 0 0 252 c0 202 -3 250 -12 240 -10 -10 -14 -78 -16 -252 l-3 -240
-90 0 -89 0 0 345 0 345 90 0 90 0 0 -47 c1 -44 2 -47 15 -29 8 11 15 32 15
48 0 27 2 28 48 29 26 1 61 5 77 9 31 8 95 3 130 -10z"/>
<path d="M5792 6307 c-66 -106 -69 -347 -6 -468 22 -44 26 -32 8 26 -25 83
-29 247 -10 345 10 46 22 92 28 103 18 34 1 29 -20 -6z"/>
<path d="M7327 6142 c-22 -24 -21 -45 1 -65 28 -26 32 -21 32 33 0 54 -7 61
-33 32z"/>
<path d="M9038 6148 c-2 -7 -4 -100 -4 -207 1 -146 4 -195 14 -198 9 -4 12 42
12 206 0 117 -4 211 -9 211 -5 0 -11 -6 -13 -12z"/>
<path d="M8206 6141 c-3 -5 -7 -78 -7 -163 -1 -122 2 -161 15 -192 9 -22 17
-37 19 -35 1 2 1 93 -1 202 -3 177 -9 217 -26 188z"/>
<path d="M6956 6095 c6 -48 19 -69 35 -59 9 5 -9 61 -28 89 -13 18 -14 15 -7
-30z"/>
<path d="M7160 5923 c0 -117 1 -118 19 -94 l19 24 16 -31 c14 -28 88 -82 112
-82 5 0 22 25 38 55 l29 56 18 -30 c20 -33 85 -81 110 -81 21 0 49 32 49 57 0
33 -32 52 -161 94 -138 45 -173 64 -218 115 l-31 35 0 -118z"/>
<path d="M6971 5863 l1 -58 13 40 c18 54 18 75 0 75 -12 0 -15 -13 -14 -57z"/>
<path d="M6742 5875 c-35 -29 -46 -63 -32 -100 9 -24 12 -25 27 -14 34 29 69
139 44 139 -5 0 -23 -11 -39 -25z"/>
<path d="M6526 5858 c-20 -28 -20 -78 -1 -104 13 -18 14 -16 15 28 0 26 4 58
10 72 12 32 -3 34 -24 4z"/>
<path d="M7723 5834 c3 -16 2 -47 -3 -67 -9 -42 -3 -46 28 -17 34 32 29 68
-12 100 -18 14 -19 13 -13 -16z"/>
<path d="M1350 6203 c1 -57 1 -58 16 -31 8 16 12 38 8 53 -12 47 -24 36 -24
-22z"/>
<path d="M1516 6228 c-5 -16 -5 -40 0 -55 l8 -28 4 28 c2 15 2 39 0 55 l-4 27
-8 -27z"/>
<path d="M2005 6138 c-25 -20 -55 -73 -55 -98 0 -5 8 -10 18 -10 13 0 25 18
44 65 14 36 24 65 23 65 -1 0 -15 -10 -30 -22z"/>
<path d="M2385 6140 c4 -14 12 -44 18 -67 9 -32 17 -43 31 -43 30 0 14 67 -25
105 -31 29 -31 30 -24 5z"/>
<path d="M3718 6148 c-2 -7 -4 -100 -4 -207 1 -146 4 -195 14 -198 9 -4 12 42
12 206 0 117 -4 211 -9 211 -5 0 -11 -6 -13 -12z"/>
<path d="M2177 6115 c-9 -13 -20 -38 -23 -55 l-6 -30 52 0 52 0 -7 33 c-8 35
-31 77 -43 77 -4 0 -15 -12 -25 -25z"/>
<path d="M1950 5880 c0 -31 24 -82 49 -104 25 -23 26 -20 6 27 -8 20 -15 50
-15 67 0 23 -4 30 -20 30 -13 0 -20 -7 -20 -20z"/>
<path d="M4406 6141 c-3 -5 -7 -78 -7 -163 -1 -122 2 -161 15 -192 9 -22 17
-37 19 -35 1 2 1 93 -1 202 -3 177 -9 217 -26 188z"/>
<path d="M10682 6139 c11 -31 7 -119 -7 -151 -10 -25 8 -22 38 6 48 44 48 102
1 149 -35 35 -45 34 -32 -4z"/>
<path d="M10343 6136 c-22 -19 -28 -32 -28 -66 0 -35 6 -47 34 -72 38 -34 46
-32 31 6 -13 34 -13 97 0 130 12 33 0 33 -37 2z"/>
<path d="M10517 6113 c-10 -9 -8 -66 3 -83 14 -23 32 33 20 65 -10 27 -13 29
-23 18z"/>
<path d="M10209 5930 c-9 -51 0 -70 22 -44 10 12 9 18 -4 32 -10 9 -17 14 -18
12z"/>
<path d="M10312 5838 c-18 -18 -14 -46 7 -58 33 -17 46 -12 57 25 9 27 8 35
-3 40 -24 8 -48 6 -61 -7z"/>
<path d="M10282 5607 c-22 -23 -28 -62 -14 -83 7 -11 45 -34 56 -34 3 0 6 17
6 38 1 20 7 48 15 62 20 35 19 40 -13 40 -17 0 -37 -10 -50 -23z"/>
<path d="M10470 5598 c-59 -63 35 -137 123 -97 50 23 53 93 5 103 -84 17 -107
16 -128 -6z"/>
<path d="M10780 5582 c0 -15 -4 -42 -9 -60 -12 -39 3 -43 43 -11 30 24 34 59
8 82 -27 25 -42 21 -42 -11z"/>
</g>
</svg>
